<?xml version="1.0" encoding="UTF-8"?>
<!-- Title: 4. D:\Pajek\DATA\TESTDATA\WRITE.NET (56) -->
<!-- Creator: Pajek: http://vlado.fmf.uni-lj.si/pub/networks/pajek/ -->
<!-- CreationDate: 07-11-2006, 11:36:33 -->
<svg xml:space="preserve" viewBox="0 0 587 435" xmlns="http://www.w3.org/2000/svg" xmlns:xlink="http://www.w3.org/1999/xlink">
<g transform="scale(1)">
<defs>
 <radialGradient id="LimeGreen" cx="30%" cy="30%" fx="30%" fy="30%" r="50%" gradientUnits="objectBoundingBox">
  <stop offset="0" style="stop-color:rgb(127,255,0)"/>
  <stop offset="1" style="stop-color:rgb(64,128,0)"/>
 </radialGradient>
 <radialGradient id="Yellow" cx="30%" cy="30%" fx="30%" fy="30%" r="50%" gradientUnits="objectBoundingBox">
  <stop offset="0" style="stop-color:rgb(255,255,0)"/>
  <stop offset="1" style="stop-color:rgb(128,128,0)"/>
 </radialGradient>
 <radialGradient id="Blue" cx="30%" cy="30%" fx="30%" fy="30%" r="50%" gradientUnits="objectBoundingBox">
  <stop offset="0" style="stop-color:rgb(0,0,255)"/>
  <stop offset="1" style="stop-color:rgb(0,0,128)"/>
 </radialGradient>
 <radialGradient id="Red" cx="30%" cy="30%" fx="30%" fy="30%" r="50%" gradientUnits="objectBoundingBox">
  <stop offset="0" style="stop-color:rgb(255,0,0)"/>
  <stop offset="1" style="stop-color:rgb(128,0,0)"/>
 </radialGradient>
</defs>


<g id="c0on" visibility="visible">
  <ellipse style="fill:url(#Yellow);stroke:url(#Yellow);stroke-width:0.00" rx="5" ry="5" cx="6" cy="10"/>
</g>
<g id="c0off" visibility="hidden">
  <ellipse style="fill:rgb(255,255,255);stroke:url(#Yellow);stroke-width:2.50" rx="4.25" ry="4.25" cx="6" cy="10"/>
  <set attributeName="visibility" attributeType="CSS" to="hidden" begin="c0off.click"/>
  <set attributeName="visibility" attributeType="CSS" to="visible" begin="c0on.click"/>
</g>
<text style="font-size:10;font-style:normal;" xml:space="preserve" x="16" y="14"><tspan>1</tspan></text>

<g id="c0">
  <set attributeName="visibility" attributeType="CSS" to="hidden" begin="c0on.click"/>
  <set attributeName="visibility" attributeType="CSS" to="visible" begin="c0off.click"/>
<!-- Edge:     7    9 -->
<line x1="290.86" y1="237.81" x2="279.88" y2="254.26" style="stroke-width:2.00;stroke:rgb(0,0,0)"></line>
<!-- Edge:     4    6 -->
<line x1="98.32" y1="244.90" x2="126.50" y2="276.31" style="stroke-width:2.00;stroke:rgb(0,0,0)"></line>
<!-- Edge:     5    6 -->
<line x1="76.31" y1="282.27" x2="115.49" y2="295.00" style="stroke-width:2.00;stroke:rgb(0,0,0)"></line>
<!-- Edge:     3    6 -->
<line x1="77.19" y1="316.42" x2="115.93" y2="312.07" style="stroke-width:2.00;stroke:rgb(0,0,0)"></line>
<!-- Edge:    26   28 -->
<line x1="426.93" y1="83.87" x2="389.56" y2="93.81" style="stroke-width:2.00;stroke:rgb(0,0,0)"></line>
<!-- Edge:    15   16 -->
<line x1="138.27" y1="103.73" x2="143.05" y2="72.21" style="stroke-width:2.00;stroke:rgb(0,0,0)"></line>
<!-- Vertex:     3 -->
<ellipse cx="77.19" cy="316.42" rx="7.06" ry="7.06" style="fill:url(#Yellow);stroke:rgb(0,0,0);stroke-width:0.00;"/>
<!-- Vertex:     4 -->
<ellipse cx="98.32" cy="244.90" rx="7.06" ry="7.06" style="fill:url(#Yellow);stroke:rgb(0,0,0);stroke-width:0.00;"/>
<!-- Vertex:     5 -->
<ellipse cx="76.31" cy="282.27" rx="7.06" ry="7.06" style="fill:url(#Yellow);stroke:rgb(0,0,0);stroke-width:0.00;"/>
<!-- Vertex:     7 -->
<ellipse cx="290.86" cy="237.81" rx="7.06" ry="7.06" style="fill:url(#Yellow);stroke:rgb(0,0,0);stroke-width:0.00;"/>
<!-- Vertex:    16 -->
<ellipse cx="143.05" cy="72.21" rx="7.06" ry="7.06" style="fill:url(#Yellow);stroke:rgb(0,0,0);stroke-width:0.00;"/>
<!-- Vertex:    26 -->
<ellipse cx="426.93" cy="83.87" rx="7.06" ry="7.06" style="fill:url(#Yellow);stroke:rgb(0,0,0);stroke-width:0.00;"/>
</g>

<g id="c1on" visibility="visible">
  <ellipse style="fill:url(#LimeGreen);stroke:url(#LimeGreen);stroke-width:0.00" rx="5" ry="5" cx="6" cy="23"/>
</g>
<g id="c1off" visibility="hidden">
  <ellipse style="fill:rgb(255,255,255);stroke:url(#LimeGreen);stroke-width:2.50" rx="4.25" ry="4.25" cx="6" cy="23"/>
  <set attributeName="visibility" attributeType="CSS" to="hidden" begin="c1off.click"/>
  <set attributeName="visibility" attributeType="CSS" to="visible" begin="c1on.click"/>
</g>
<text style="font-size:10;font-style:normal;" xml:space="preserve" x="16" y="27"><tspan>2</tspan></text>

<g id="c1">
  <set attributeName="visibility" attributeType="CSS" to="hidden" begin="c1on.click"/>
  <set attributeName="visibility" attributeType="CSS" to="visible" begin="c1off.click"/>
<!-- Edge:    48   49 -->
<line x1="437.37" y1="283.66" x2="459.33" y2="304.41" style="stroke-width:2.00;stroke:rgb(0,0,0)"></line>
<!-- Edge:    49   50 -->
<line x1="459.33" y1="304.41" x2="468.87" y2="275.49" style="stroke-width:2.00;stroke:rgb(0,0,0)"></line>
<!-- Edge:    23   24 -->
<line x1="273.72" y1="33.19" x2="301.48" y2="99.35" style="stroke-width:2.00;stroke:rgb(0,0,0)"></line>
<!-- Edge:    23   27 -->
<line x1="273.72" y1="33.19" x2="297.20" y2="32.36" style="stroke-width:2.00;stroke:rgb(0,0,0)"></line>
<!-- Edge:    43   44 -->
<line x1="384.90" y1="213.37" x2="358.48" y2="190.92" style="stroke-width:2.00;stroke:rgb(0,0,0)"></line>
<!-- Edge:    40   43 -->
<line x1="401.95" y1="197.14" x2="384.90" y2="213.37" style="stroke-width:2.00;stroke:rgb(0,0,0)"></line>
<!-- Edge:    41   43 -->
<line x1="362.12" y1="286.40" x2="384.90" y2="213.37" style="stroke-width:2.00;stroke:rgb(0,0,0)"></line>
<!-- Edge:    17   32 -->
<line x1="279.24" y1="298.85" x2="323.32" y2="311.02" style="stroke-width:2.00;stroke:rgb(0,0,0)"></line>
<!-- Edge:    32   37 -->
<line x1="323.32" y1="311.02" x2="323.26" y2="269.79" style="stroke-width:2.00;stroke:rgb(0,0,0)"></line>
<!-- Edge:    32   41 -->
<line x1="323.32" y1="311.02" x2="362.12" y2="286.40" style="stroke-width:2.00;stroke:rgb(0,0,0)"></line>
<!-- Edge:    37   41 -->
<line x1="323.26" y1="269.79" x2="362.12" y2="286.40" style="stroke-width:2.00;stroke:rgb(0,0,0)"></line>
<!-- Edge:    41   47 -->
<line x1="362.12" y1="286.40" x2="380.76" y2="294.17" style="stroke-width:2.00;stroke:rgb(0,0,0)"></line>
<!-- Edge:    41   42 -->
<line x1="362.12" y1="286.40" x2="395.17" y2="267.31" style="stroke-width:2.00;stroke:rgb(0,0,0)"></line>
<!-- Edge:    48   50 -->
<line x1="437.37" y1="283.66" x2="457.89" y2="265.11" style="stroke-width:2.00;stroke:rgb(0,0,0)"></line>
<!-- Edge:    47   48 -->
<line x1="418.38" y1="292.80" x2="437.37" y2="283.66" style="stroke-width:2.00;stroke:rgb(0,0,0)"></line>
<!-- Edge:    11   20 -->
<line x1="225.32" y1="353.15" x2="240.32" y2="378.54" style="stroke-width:2.00;stroke:rgb(0,0,0)"></line>
<!-- Edge:    20   33 -->
<line x1="240.32" y1="378.54" x2="290.59" y2="368.16" style="stroke-width:2.00;stroke:rgb(0,0,0)"></line>
<!-- Edge:    19   33 -->
<line x1="266.73" y1="342.87" x2="303.80" y2="350.33" style="stroke-width:2.00;stroke:rgb(0,0,0)"></line>
<!-- Edge:    40   44 -->
<line x1="388.74" y1="185.92" x2="358.48" y2="190.92" style="stroke-width:2.00;stroke:rgb(0,0,0)"></line>
<!-- Edge:     1    6 -->
<line x1="136.48" y1="370.23" x2="145.58" y2="338.97" style="stroke-width:2.00;stroke:rgb(0,0,0)"></line>
<!-- Edge:     1    2 -->
<line x1="136.48" y1="370.23" x2="102.14" y2="344.96" style="stroke-width:2.00;stroke:rgb(0,0,0)"></line>
<!-- Edge:     9   17 -->
<line x1="274.07" y1="284.77" x2="279.24" y2="298.85" style="stroke-width:2.00;stroke:rgb(0,0,0)"></line>
<!-- Edge:    17   19 -->
<line x1="279.24" y1="298.85" x2="266.73" y2="342.87" style="stroke-width:2.00;stroke:rgb(0,0,0)"></line>
<!-- Edge:     2    6 -->
<line x1="102.14" y1="344.96" x2="128.41" y2="326.34" style="stroke-width:2.00;stroke:rgb(0,0,0)"></line>
<!-- Edge:    11   19 -->
<line x1="238.53" y1="335.32" x2="266.73" y2="342.87" style="stroke-width:2.00;stroke:rgb(0,0,0)"></line>
<!-- Edge:    50   52 -->
<line x1="478.29" y1="224.02" x2="478.17" y2="201.49" style="stroke-width:2.00;stroke:rgb(0,0,0)"></line>
<!-- Edge:    51   52 -->
<line x1="516.91" y1="209.28" x2="478.17" y2="201.49" style="stroke-width:2.00;stroke:rgb(0,0,0)"></line>
<!-- Edge:    50   51 -->
<line x1="497.66" y1="227.92" x2="516.91" y2="209.28" style="stroke-width:2.00;stroke:rgb(0,0,0)"></line>
<!-- Edge:    21   22 -->
<line x1="237.50" y1="127.98" x2="234.39" y2="84.74" style="stroke-width:2.00;stroke:rgb(0,0,0)"></line>
<!-- Edge:    22   24 -->
<line x1="234.39" y1="84.74" x2="301.48" y2="99.35" style="stroke-width:2.00;stroke:rgb(0,0,0)"></line>
<!-- Edge:    38   39 -->
<line x1="428.98" y1="124.54" x2="382.96" y2="129.72" style="stroke-width:2.00;stroke:rgb(0,0,0)"></line>
<!-- Edge:    39   40 -->
<line x1="382.96" y1="129.72" x2="400.98" y2="155.32" style="stroke-width:2.00;stroke:rgb(0,0,0)"></line>
<!-- Edge:    38   40 -->
<line x1="428.98" y1="124.54" x2="423.99" y2="152.73" style="stroke-width:2.00;stroke:rgb(0,0,0)"></line>
<!-- Edge:    21   24 -->
<line x1="237.50" y1="127.98" x2="301.48" y2="99.35" style="stroke-width:2.00;stroke:rgb(0,0,0)"></line>
<!-- Edge:    24   31 -->
<line x1="301.48" y1="99.35" x2="318.92" y2="125.24" style="stroke-width:2.00;stroke:rgb(0,0,0)"></line>
<!-- Edge:    24   28 -->
<line x1="301.48" y1="99.35" x2="326.84" y2="101.55" style="stroke-width:2.00;stroke:rgb(0,0,0)"></line>
<!-- Edge:    18   25 -->
<line x1="217.19" y1="164.39" x2="255.08" y2="185.31" style="stroke-width:2.00;stroke:rgb(0,0,0)"></line>
<!-- Edge:    15   18 -->
<line x1="175.34" y1="149.81" x2="217.19" y2="164.39" style="stroke-width:2.00;stroke:rgb(0,0,0)"></line>
<!-- Vertex:     1 -->
<ellipse cx="136.48" cy="370.23" rx="7.06" ry="7.06" style="fill:url(#LimeGreen);stroke:rgb(0,0,0);stroke-width:0.00;"/>
<!-- Vertex:     2 -->
<ellipse cx="102.14" cy="344.96" rx="7.06" ry="7.06" style="fill:url(#LimeGreen);stroke:rgb(0,0,0);stroke-width:0.00;"/>
<!-- Vertex:    17 -->
<ellipse cx="279.24" cy="298.85" rx="7.06" ry="7.06" style="fill:url(#LimeGreen);stroke:rgb(0,0,0);stroke-width:0.00;"/>
<!-- Vertex:    18 -->
<ellipse cx="217.19" cy="164.39" rx="7.06" ry="7.06" style="fill:url(#LimeGreen);stroke:rgb(0,0,0);stroke-width:0.00;"/>
<!-- Vertex:    19 -->
<ellipse cx="266.73" cy="342.87" rx="7.06" ry="7.06" style="fill:url(#LimeGreen);stroke:rgb(0,0,0);stroke-width:0.00;"/>
<!-- Vertex:    20 -->
<ellipse cx="240.32" cy="378.54" rx="7.06" ry="7.06" style="fill:url(#LimeGreen);stroke:rgb(0,0,0);stroke-width:0.00;"/>
<!-- Vertex:    21 -->
<ellipse cx="237.50" cy="127.98" rx="7.06" ry="7.06" style="fill:url(#LimeGreen);stroke:rgb(0,0,0);stroke-width:0.00;"/>
<!-- Vertex:    22 -->
<ellipse cx="234.39" cy="84.74" rx="7.06" ry="7.06" style="fill:url(#LimeGreen);stroke:rgb(0,0,0);stroke-width:0.00;"/>
<!-- Vertex:    23 -->
<ellipse cx="273.72" cy="33.19" rx="7.06" ry="7.06" style="fill:url(#LimeGreen);stroke:rgb(0,0,0);stroke-width:0.00;"/>
<!-- Vertex:    24 -->
<ellipse cx="301.48" cy="99.35" rx="7.06" ry="7.06" style="fill:url(#LimeGreen);stroke:rgb(0,0,0);stroke-width:0.00;"/>
<!-- Vertex:    32 -->
<ellipse cx="323.32" cy="311.02" rx="7.06" ry="7.06" style="fill:url(#LimeGreen);stroke:rgb(0,0,0);stroke-width:0.00;"/>
<!-- Vertex:    37 -->
<ellipse cx="323.26" cy="269.79" rx="7.06" ry="7.06" style="fill:url(#LimeGreen);stroke:rgb(0,0,0);stroke-width:0.00;"/>
<!-- Vertex:    38 -->
<ellipse cx="428.98" cy="124.54" rx="7.06" ry="7.06" style="fill:url(#LimeGreen);stroke:rgb(0,0,0);stroke-width:0.00;"/>
<!-- Vertex:    39 -->
<ellipse cx="382.96" cy="129.72" rx="7.06" ry="7.06" style="fill:url(#LimeGreen);stroke:rgb(0,0,0);stroke-width:0.00;"/>
<!-- Vertex:    41 -->
<ellipse cx="362.12" cy="286.40" rx="7.06" ry="7.06" style="fill:url(#LimeGreen);stroke:rgb(0,0,0);stroke-width:0.00;"/>
<!-- Vertex:    43 -->
<ellipse cx="384.90" cy="213.37" rx="7.06" ry="7.06" style="fill:url(#LimeGreen);stroke:rgb(0,0,0);stroke-width:0.00;"/>
<!-- Vertex:    44 -->
<ellipse cx="358.48" cy="190.92" rx="7.06" ry="7.06" style="fill:url(#LimeGreen);stroke:rgb(0,0,0);stroke-width:0.00;"/>
<!-- Vertex:    48 -->
<ellipse cx="437.37" cy="283.66" rx="7.06" ry="7.06" style="fill:url(#LimeGreen);stroke:rgb(0,0,0);stroke-width:0.00;"/>
<!-- Vertex:    49 -->
<ellipse cx="459.33" cy="304.41" rx="7.06" ry="7.06" style="fill:url(#LimeGreen);stroke:rgb(0,0,0);stroke-width:0.00;"/>
<!-- Vertex:    51 -->
<ellipse cx="516.91" cy="209.28" rx="7.06" ry="7.06" style="fill:url(#LimeGreen);stroke:rgb(0,0,0);stroke-width:0.00;"/>
<!-- Vertex:    52 -->
<ellipse cx="478.17" cy="201.49" rx="7.06" ry="7.06" style="fill:url(#LimeGreen);stroke:rgb(0,0,0);stroke-width:0.00;"/>
</g>

<g id="c2on" visibility="visible">
  <ellipse style="fill:url(#Red);stroke:url(#Red);stroke-width:0.00" rx="5" ry="5" cx="6" cy="36"/>
</g>
<g id="c2off" visibility="hidden">
  <ellipse style="fill:rgb(255,255,255);stroke:url(#Red);stroke-width:2.50" rx="4.25" ry="4.25" cx="6" cy="36"/>
  <set attributeName="visibility" attributeType="CSS" to="hidden" begin="c2off.click"/>
  <set attributeName="visibility" attributeType="CSS" to="visible" begin="c2on.click"/>
</g>
<text style="font-size:10;font-style:normal;" xml:space="preserve" x="16" y="40"><tspan>3</tspan></text>

<g id="c2">
  <set attributeName="visibility" attributeType="CSS" to="hidden" begin="c2on.click"/>
  <set attributeName="visibility" attributeType="CSS" to="visible" begin="c2off.click"/>
<!-- Edge:    12   14 -->
<line x1="61.87" y1="99.92" x2="77.78" y2="133.68" style="stroke-width:2.00;stroke:rgb(0,0,0)"></line>
<!-- Edge:    12   13 -->
<line x1="61.87" y1="99.92" x2="48.43" y2="167.69" style="stroke-width:2.00;stroke:rgb(0,0,0)"></line>
<!-- Edge:    12   15 -->
<line x1="61.87" y1="99.92" x2="133.48" y2="135.24" style="stroke-width:2.00;stroke:rgb(0,0,0)"></line>
<!-- Edge:    23   27 -->
<line x1="297.20" y1="32.36" x2="320.68" y2="31.54" style="stroke-width:2.00;stroke:rgb(0,0,0)"></line>
<!-- Edge:    27   30 -->
<line x1="320.68" y1="31.54" x2="360.30" y2="62.25" style="stroke-width:2.00;stroke:rgb(0,0,0)"></line>
<!-- Edge:    27   29 -->
<line x1="320.68" y1="31.54" x2="410.14" y2="43.15" style="stroke-width:2.00;stroke:rgb(0,0,0)"></line>
<!-- Edge:    27   28 -->
<line x1="320.68" y1="31.54" x2="352.20" y2="103.75" style="stroke-width:2.00;stroke:rgb(0,0,0)"></line>
<!-- Edge:    40   43 -->
<line x1="419.00" y1="180.92" x2="401.95" y2="197.14" style="stroke-width:2.00;stroke:rgb(0,0,0)"></line>
<!-- Edge:    41   47 -->
<line x1="380.76" y1="294.17" x2="399.39" y2="301.93" style="stroke-width:2.00;stroke:rgb(0,0,0)"></line>
<!-- Edge:    41   42 -->
<line x1="395.17" y1="267.31" x2="428.22" y2="248.21" style="stroke-width:2.00;stroke:rgb(0,0,0)"></line>
<!-- Edge:    13   14 -->
<line x1="48.43" y1="167.69" x2="77.78" y2="133.68" style="stroke-width:2.00;stroke:rgb(0,0,0)"></line>
<!-- Edge:    14   15 -->
<line x1="77.78" y1="133.68" x2="133.48" y2="135.24" style="stroke-width:2.00;stroke:rgb(0,0,0)"></line>
<!-- Edge:    47   48 -->
<line x1="399.39" y1="301.93" x2="418.38" y2="292.80" style="stroke-width:2.00;stroke:rgb(0,0,0)"></line>
<!-- Edge:    46   47 -->
<line x1="429.63" y1="376.88" x2="399.39" y2="301.93" style="stroke-width:2.00;stroke:rgb(0,0,0)"></line>
<!-- Edge:    45   46 -->
<line x1="392.94" y1="342.04" x2="429.63" y2="376.88" style="stroke-width:2.00;stroke:rgb(0,0,0)"></line>
<!-- Edge:    33   46 -->
<line x1="340.87" y1="357.79" x2="429.63" y2="376.88" style="stroke-width:2.00;stroke:rgb(0,0,0)"></line>
<!-- Edge:    45   47 -->
<line x1="392.94" y1="342.04" x2="399.39" y2="301.93" style="stroke-width:2.00;stroke:rgb(0,0,0)"></line>
<!-- Edge:    33   45 -->
<line x1="340.87" y1="357.79" x2="392.94" y2="342.04" style="stroke-width:2.00;stroke:rgb(0,0,0)"></line>
<!-- Edge:    20   33 -->
<line x1="290.59" y1="368.16" x2="340.87" y2="357.79" style="stroke-width:2.00;stroke:rgb(0,0,0)"></line>
<!-- Edge:    19   33 -->
<line x1="303.80" y1="350.33" x2="340.87" y2="357.79" style="stroke-width:2.00;stroke:rgb(0,0,0)"></line>
<!-- Edge:    33   47 -->
<line x1="340.87" y1="357.79" x2="399.39" y2="301.93" style="stroke-width:2.00;stroke:rgb(0,0,0)"></line>
<!-- Edge:    42   47 -->
<line x1="428.22" y1="248.21" x2="399.39" y2="301.93" style="stroke-width:2.00;stroke:rgb(0,0,0)"></line>
<!-- Edge:    29   30 -->
<line x1="410.14" y1="43.15" x2="360.30" y2="62.25" style="stroke-width:2.00;stroke:rgb(0,0,0)"></line>
<!-- Edge:    28   30 -->
<line x1="352.20" y1="103.75" x2="360.30" y2="62.25" style="stroke-width:2.00;stroke:rgb(0,0,0)"></line>
<!-- Edge:    40   44 -->
<line x1="419.00" y1="180.92" x2="388.74" y2="185.92" style="stroke-width:2.00;stroke:rgb(0,0,0)"></line>
<!-- Edge:    28   29 -->
<line x1="352.20" y1="103.75" x2="410.14" y2="43.15" style="stroke-width:2.00;stroke:rgb(0,0,0)"></line>
<!-- Edge:    10   25 -->
<line x1="240.14" y1="214.67" x2="292.97" y2="206.23" style="stroke-width:2.00;stroke:rgb(0,0,0)"></line>
<!-- Edge:    13   15 -->
<line x1="48.43" y1="167.69" x2="133.48" y2="135.24" style="stroke-width:2.00;stroke:rgb(0,0,0)"></line>
<!-- Edge:    40   50 -->
<line x1="419.00" y1="180.92" x2="448.70" y2="213.74" style="stroke-width:2.00;stroke:rgb(0,0,0)"></line>
<!-- Edge:    42   50 -->
<line x1="428.22" y1="248.21" x2="453.31" y2="247.38" style="stroke-width:2.00;stroke:rgb(0,0,0)"></line>
<!-- Edge:    39   40 -->
<line x1="400.98" y1="155.32" x2="419.00" y2="180.92" style="stroke-width:2.00;stroke:rgb(0,0,0)"></line>
<!-- Edge:    38   40 -->
<line x1="423.99" y1="152.73" x2="419.00" y2="180.92" style="stroke-width:2.00;stroke:rgb(0,0,0)"></line>
<!-- Edge:    24   31 -->
<line x1="318.92" y1="125.24" x2="336.35" y2="151.12" style="stroke-width:2.00;stroke:rgb(0,0,0)"></line>
<!-- Edge:    24   28 -->
<line x1="326.84" y1="101.55" x2="352.20" y2="103.75" style="stroke-width:2.00;stroke:rgb(0,0,0)"></line>
<!-- Edge:    35   40 -->
<line x1="474.00" y1="156.08" x2="419.00" y2="180.92" style="stroke-width:2.00;stroke:rgb(0,0,0)"></line>
<!-- Edge:    34   35 -->
<line x1="512.16" y1="166.04" x2="474.00" y2="156.08" style="stroke-width:2.00;stroke:rgb(0,0,0)"></line>
<!-- Edge:    35   36 -->
<line x1="474.00" y1="156.08" x2="482.10" y2="123.71" style="stroke-width:2.00;stroke:rgb(0,0,0)"></line>
<!-- Edge:    28   31 -->
<line x1="352.20" y1="103.75" x2="336.35" y2="151.12" style="stroke-width:2.00;stroke:rgb(0,0,0)"></line>
<!-- Edge:    26   28 -->
<line x1="389.56" y1="93.81" x2="352.20" y2="103.75" style="stroke-width:2.00;stroke:rgb(0,0,0)"></line>
<!-- Edge:    34   40 -->
<line x1="512.16" y1="166.04" x2="419.00" y2="180.92" style="stroke-width:2.00;stroke:rgb(0,0,0)"></line>
<!-- Edge:    34   36 -->
<line x1="512.16" y1="166.04" x2="482.10" y2="123.71" style="stroke-width:2.00;stroke:rgb(0,0,0)"></line>
<!-- Edge:    36   40 -->
<line x1="482.10" y1="123.71" x2="419.00" y2="180.92" style="stroke-width:2.00;stroke:rgb(0,0,0)"></line>
<!-- Edge:    25   31 -->
<line x1="292.97" y1="206.23" x2="336.35" y2="151.12" style="stroke-width:2.00;stroke:rgb(0,0,0)"></line>
<!-- Edge:    31   40 -->
<line x1="336.35" y1="151.12" x2="419.00" y2="180.92" style="stroke-width:2.00;stroke:rgb(0,0,0)"></line>
<!-- Edge:    40   42 -->
<line x1="419.00" y1="180.92" x2="428.22" y2="248.21" style="stroke-width:2.00;stroke:rgb(0,0,0)"></line>
<!-- Edge:    15   16 -->
<line x1="133.48" y1="135.24" x2="138.27" y2="103.73" style="stroke-width:2.00;stroke:rgb(0,0,0)"></line>
<!-- Edge:    18   25 -->
<line x1="255.08" y1="185.31" x2="292.97" y2="206.23" style="stroke-width:2.00;stroke:rgb(0,0,0)"></line>
<!-- Edge:    25   42 -->
<line x1="292.97" y1="206.23" x2="428.22" y2="248.21" style="stroke-width:2.00;stroke:rgb(0,0,0)"></line>
<!-- Edge:    15   18 -->
<line x1="133.48" y1="135.24" x2="175.34" y2="149.81" style="stroke-width:2.00;stroke:rgb(0,0,0)"></line>
<!-- Vertex:    12 -->
<ellipse cx="61.87" cy="99.92" rx="7.06" ry="7.06" style="fill:url(#Red);stroke:rgb(0,0,0);stroke-width:0.00;"/>
<!-- Vertex:    13 -->
<ellipse cx="48.43" cy="167.69" rx="7.06" ry="7.06" style="fill:url(#Red);stroke:rgb(0,0,0);stroke-width:0.00;"/>
<!-- Vertex:    14 -->
<ellipse cx="77.78" cy="133.68" rx="7.06" ry="7.06" style="fill:url(#Red);stroke:rgb(0,0,0);stroke-width:0.00;"/>
<!-- Vertex:    15 -->
<ellipse cx="133.48" cy="135.24" rx="7.06" ry="7.06" style="fill:url(#Red);stroke:rgb(0,0,0);stroke-width:0.00;"/>
<!-- Vertex:    25 -->
<ellipse cx="292.97" cy="206.23" rx="7.06" ry="7.06" style="fill:url(#Red);stroke:rgb(0,0,0);stroke-width:0.00;"/>
<!-- Vertex:    27 -->
<ellipse cx="320.68" cy="31.54" rx="7.06" ry="7.06" style="fill:url(#Red);stroke:rgb(0,0,0);stroke-width:0.00;"/>
<!-- Vertex:    28 -->
<ellipse cx="352.20" cy="103.75" rx="7.06" ry="7.06" style="fill:url(#Red);stroke:rgb(0,0,0);stroke-width:0.00;"/>
<!-- Vertex:    29 -->
<ellipse cx="410.14" cy="43.15" rx="7.06" ry="7.06" style="fill:url(#Red);stroke:rgb(0,0,0);stroke-width:0.00;"/>
<!-- Vertex:    30 -->
<ellipse cx="360.30" cy="62.25" rx="7.06" ry="7.06" style="fill:url(#Red);stroke:rgb(0,0,0);stroke-width:0.00;"/>
<!-- Vertex:    31 -->
<ellipse cx="336.35" cy="151.12" rx="7.06" ry="7.06" style="fill:url(#Red);stroke:rgb(0,0,0);stroke-width:0.00;"/>
<!-- Vertex:    33 -->
<ellipse cx="340.87" cy="357.79" rx="7.06" ry="7.06" style="fill:url(#Red);stroke:rgb(0,0,0);stroke-width:0.00;"/>
<!-- Vertex:    34 -->
<ellipse cx="512.16" cy="166.04" rx="7.06" ry="7.06" style="fill:url(#Red);stroke:rgb(0,0,0);stroke-width:0.00;"/>
<!-- Vertex:    35 -->
<ellipse cx="474.00" cy="156.08" rx="7.06" ry="7.06" style="fill:url(#Red);stroke:rgb(0,0,0);stroke-width:0.00;"/>
<!-- Vertex:    36 -->
<ellipse cx="482.10" cy="123.71" rx="7.06" ry="7.06" style="fill:url(#Red);stroke:rgb(0,0,0);stroke-width:0.00;"/>
<!-- Vertex:    40 -->
<ellipse cx="419.00" cy="180.92" rx="7.06" ry="7.06" style="fill:url(#Red);stroke:rgb(0,0,0);stroke-width:0.00;"/>
<!-- Vertex:    42 -->
<ellipse cx="428.22" cy="248.21" rx="7.06" ry="7.06" style="fill:url(#Red);stroke:rgb(0,0,0);stroke-width:0.00;"/>
<!-- Vertex:    45 -->
<ellipse cx="392.94" cy="342.04" rx="7.06" ry="7.06" style="fill:url(#Red);stroke:rgb(0,0,0);stroke-width:0.00;"/>
<!-- Vertex:    46 -->
<ellipse cx="429.63" cy="376.88" rx="7.06" ry="7.06" style="fill:url(#Red);stroke:rgb(0,0,0);stroke-width:0.00;"/>
<!-- Vertex:    47 -->
<ellipse cx="399.39" cy="301.93" rx="7.06" ry="7.06" style="fill:url(#Red);stroke:rgb(0,0,0);stroke-width:0.00;"/>
</g>

<g id="c3on" visibility="visible">
  <ellipse style="fill:url(#Blue);stroke:url(#Blue);stroke-width:0.00" rx="5" ry="5" cx="6" cy="49"/>
</g>
<g id="c3off" visibility="hidden">
  <ellipse style="fill:rgb(255,255,255);stroke:url(#Blue);stroke-width:2.50" rx="4.25" ry="4.25" cx="6" cy="49"/>
  <set attributeName="visibility" attributeType="CSS" to="hidden" begin="c3off.click"/>
  <set attributeName="visibility" attributeType="CSS" to="visible" begin="c3on.click"/>
</g>
<text style="font-size:10;font-style:normal;" xml:space="preserve" x="16" y="53"><tspan>4</tspan></text>

<g id="c3">
  <set attributeName="visibility" attributeType="CSS" to="hidden" begin="c3on.click"/>
  <set attributeName="visibility" attributeType="CSS" to="visible" begin="c3off.click"/>
<!-- Edge:    49   50 -->
<line x1="468.87" y1="275.49" x2="478.40" y2="246.56" style="stroke-width:2.00;stroke:rgb(0,0,0)"></line>
<!-- Edge:     7    9 -->
<line x1="279.88" y1="254.26" x2="268.90" y2="270.70" style="stroke-width:2.00;stroke:rgb(0,0,0)"></line>
<!-- Edge:    48   50 -->
<line x1="457.89" y1="265.11" x2="478.40" y2="246.56" style="stroke-width:2.00;stroke:rgb(0,0,0)"></line>
<!-- Edge:    11   20 -->
<line x1="210.32" y1="327.77" x2="225.32" y2="353.15" style="stroke-width:2.00;stroke:rgb(0,0,0)"></line>
<!-- Edge:     4    6 -->
<line x1="126.50" y1="276.31" x2="154.67" y2="307.72" style="stroke-width:2.00;stroke:rgb(0,0,0)"></line>
<!-- Edge:     1    6 -->
<line x1="145.58" y1="338.97" x2="154.67" y2="307.72" style="stroke-width:2.00;stroke:rgb(0,0,0)"></line>
<!-- Edge:     8    9 -->
<line x1="221.83" y1="265.48" x2="268.90" y2="270.70" style="stroke-width:2.00;stroke:rgb(0,0,0)"></line>
<!-- Edge:     9   10 -->
<line x1="268.90" y1="270.70" x2="187.31" y2="223.11" style="stroke-width:2.00;stroke:rgb(0,0,0)"></line>
<!-- Edge:     6    9 -->
<line x1="154.67" y1="307.72" x2="268.90" y2="270.70" style="stroke-width:2.00;stroke:rgb(0,0,0)"></line>
<!-- Edge:     9   11 -->
<line x1="268.90" y1="270.70" x2="210.32" y2="327.77" style="stroke-width:2.00;stroke:rgb(0,0,0)"></line>
<!-- Edge:     9   17 -->
<line x1="268.90" y1="270.70" x2="274.07" y2="284.77" style="stroke-width:2.00;stroke:rgb(0,0,0)"></line>
<!-- Edge:     5    6 -->
<line x1="115.49" y1="295.00" x2="154.67" y2="307.72" style="stroke-width:2.00;stroke:rgb(0,0,0)"></line>
<!-- Edge:     2    6 -->
<line x1="128.41" y1="326.34" x2="154.67" y2="307.72" style="stroke-width:2.00;stroke:rgb(0,0,0)"></line>
<!-- Edge:     6    8 -->
<line x1="154.67" y1="307.72" x2="221.83" y2="265.48" style="stroke-width:2.00;stroke:rgb(0,0,0)"></line>
<!-- Edge:     6   10 -->
<line x1="154.67" y1="307.72" x2="187.31" y2="223.11" style="stroke-width:2.00;stroke:rgb(0,0,0)"></line>
<!-- Edge:     6   11 -->
<line x1="154.67" y1="307.72" x2="210.32" y2="327.77" style="stroke-width:2.00;stroke:rgb(0,0,0)"></line>
<!-- Edge:     3    6 -->
<line x1="115.93" y1="312.07" x2="154.67" y2="307.72" style="stroke-width:2.00;stroke:rgb(0,0,0)"></line>
<!-- Edge:     8   10 -->
<line x1="221.83" y1="265.48" x2="187.31" y2="223.11" style="stroke-width:2.00;stroke:rgb(0,0,0)"></line>
<!-- Edge:     8   11 -->
<line x1="221.83" y1="265.48" x2="210.32" y2="327.77" style="stroke-width:2.00;stroke:rgb(0,0,0)"></line>
<!-- Edge:    10   11 -->
<line x1="187.31" y1="223.11" x2="210.32" y2="327.77" style="stroke-width:2.00;stroke:rgb(0,0,0)"></line>
<!-- Edge:    11   19 -->
<line x1="210.32" y1="327.77" x2="238.53" y2="335.32" style="stroke-width:2.00;stroke:rgb(0,0,0)"></line>
<!-- Edge:    10   25 -->
<line x1="187.31" y1="223.11" x2="240.14" y2="214.67" style="stroke-width:2.00;stroke:rgb(0,0,0)"></line>
<!-- Edge:    53   55 -->
<line x1="539.92" y1="242.16" x2="494.90" y2="294.02" style="stroke-width:2.00;stroke:rgb(0,0,0)"></line>
<!-- Edge:    54   55 -->
<line x1="574.44" y1="272.40" x2="494.90" y2="294.02" style="stroke-width:2.00;stroke:rgb(0,0,0)"></line>
<!-- Edge:    50   55 -->
<line x1="478.40" y1="246.56" x2="494.90" y2="294.02" style="stroke-width:2.00;stroke:rgb(0,0,0)"></line>
<!-- Edge:    55   56 -->
<line x1="494.90" y1="294.02" x2="546.20" y2="305.28" style="stroke-width:2.00;stroke:rgb(0,0,0)"></line>
<!-- Edge:    50   52 -->
<line x1="478.40" y1="246.56" x2="478.29" y2="224.02" style="stroke-width:2.00;stroke:rgb(0,0,0)"></line>
<!-- Edge:    50   51 -->
<line x1="478.40" y1="246.56" x2="497.66" y2="227.92" style="stroke-width:2.00;stroke:rgb(0,0,0)"></line>
<!-- Edge:    40   50 -->
<line x1="448.70" y1="213.74" x2="478.40" y2="246.56" style="stroke-width:2.00;stroke:rgb(0,0,0)"></line>
<!-- Edge:    42   50 -->
<line x1="453.31" y1="247.38" x2="478.40" y2="246.56" style="stroke-width:2.00;stroke:rgb(0,0,0)"></line>
<!-- Edge:    50   53 -->
<line x1="478.40" y1="246.56" x2="539.92" y2="242.16" style="stroke-width:2.00;stroke:rgb(0,0,0)"></line>
<!-- Edge:    50   54 -->
<line x1="478.40" y1="246.56" x2="574.44" y2="272.40" style="stroke-width:2.00;stroke:rgb(0,0,0)"></line>
<!-- Edge:    50   56 -->
<line x1="478.40" y1="246.56" x2="546.20" y2="305.28" style="stroke-width:2.00;stroke:rgb(0,0,0)"></line>
<!-- Edge:    53   54 -->
<line x1="539.92" y1="242.16" x2="574.44" y2="272.40" style="stroke-width:2.00;stroke:rgb(0,0,0)"></line>
<!-- Edge:    54   56 -->
<line x1="574.44" y1="272.40" x2="546.20" y2="305.28" style="stroke-width:2.00;stroke:rgb(0,0,0)"></line>
<!-- Edge:    53   56 -->
<line x1="539.92" y1="242.16" x2="546.20" y2="305.28" style="stroke-width:2.00;stroke:rgb(0,0,0)"></line>
<!-- Vertex:     6 -->
<ellipse cx="154.67" cy="307.72" rx="7.06" ry="7.06" style="fill:url(#Blue);stroke:rgb(0,0,0);stroke-width:0.00;"/>
<!-- Vertex:     8 -->
<ellipse cx="221.83" cy="265.48" rx="7.06" ry="7.06" style="fill:url(#Blue);stroke:rgb(0,0,0);stroke-width:0.00;"/>
<!-- Vertex:     9 -->
<ellipse cx="268.90" cy="270.70" rx="7.06" ry="7.06" style="fill:url(#Blue);stroke:rgb(0,0,0);stroke-width:0.00;"/>
<!-- Vertex:    10 -->
<ellipse cx="187.31" cy="223.11" rx="7.06" ry="7.06" style="fill:url(#Blue);stroke:rgb(0,0,0);stroke-width:0.00;"/>
<!-- Vertex:    11 -->
<ellipse cx="210.32" cy="327.77" rx="7.06" ry="7.06" style="fill:url(#Blue);stroke:rgb(0,0,0);stroke-width:0.00;"/>
<!-- Vertex:    50 -->
<ellipse cx="478.40" cy="246.56" rx="7.06" ry="7.06" style="fill:url(#Blue);stroke:rgb(0,0,0);stroke-width:0.00;"/>
<!-- Vertex:    53 -->
<ellipse cx="539.92" cy="242.16" rx="7.06" ry="7.06" style="fill:url(#Blue);stroke:rgb(0,0,0);stroke-width:0.00;"/>
<!-- Vertex:    54 -->
<ellipse cx="574.44" cy="272.40" rx="7.06" ry="7.06" style="fill:url(#Blue);stroke:rgb(0,0,0);stroke-width:0.00;"/>
<!-- Vertex:    55 -->
<ellipse cx="494.90" cy="294.02" rx="7.06" ry="7.06" style="fill:url(#Blue);stroke:rgb(0,0,0);stroke-width:0.00;"/>
<!-- Vertex:    56 -->
<ellipse cx="546.20" cy="305.28" rx="7.06" ry="7.06" style="fill:url(#Blue);stroke:rgb(0,0,0);stroke-width:0.00;"/>
</g>
</g>
</svg>
